<?xml version="1.0" encoding="UTF-8" ?>
<!DOCTYPE svg PUBLIC "-//W3C//DTD SVG 1.1//EN" "http://www.w3.org/Graphics/SVG/1.1/DTD/svg11.dtd">
<svg width="512pt" height="512pt" viewBox="0 0 512 512" version="1.1" xmlns="http://www.w3.org/2000/svg">
<g id="#ffffffff">
<path fill="#ffffff" opacity="1.00" d=" M 222.13 89.44 C 245.25 85.29 269.37 86.81 291.76 93.96 C 327.29 105.10 357.92 130.66 375.50 163.46 C 386.02 182.74 391.68 204.44 392.86 226.33 C 399.88 225.51 406.92 224.62 414.00 224.83 C 439.81 225.15 465.24 236.24 483.20 254.76 C 501.23 272.74 511.65 297.95 512.00 323.37 L 512.00 326.60 C 511.55 345.33 505.98 363.97 495.60 379.60 C 480.70 402.46 456.14 418.85 429.18 423.35 C 422.21 424.59 415.12 424.90 408.05 424.88 C 366.05 424.75 324.05 424.70 282.05 424.62 C 275.60 424.60 268.98 423.88 263.12 421.00 C 254.97 417.12 248.74 409.73 245.81 401.25 C 244.06 396.37 243.68 391.13 243.67 385.99 C 243.76 348.99 243.68 312.00 243.72 275.00 C 243.72 269.17 243.76 263.33 243.55 257.50 C 239.76 261.43 236.38 265.72 232.88 269.91 C 230.87 272.30 228.67 274.75 225.65 275.86 C 221.10 277.65 215.58 276.28 212.30 272.68 C 209.14 269.33 208.23 264.08 210.07 259.86 C 211.31 257.03 213.40 254.70 215.37 252.35 C 223.43 243.06 231.27 233.60 239.14 224.15 C 241.42 221.47 243.79 218.75 246.87 216.96 C 253.03 213.34 261.32 213.74 267.08 217.97 C 269.55 219.77 271.56 222.11 273.51 224.44 C 281.63 234.33 289.96 244.04 298.22 253.81 C 299.90 255.88 301.60 258.01 302.55 260.54 C 304.26 265.14 302.72 270.73 298.93 273.84 C 295.28 276.86 289.83 277.56 285.60 275.38 C 282.81 273.98 280.81 271.50 278.83 269.17 C 275.40 264.99 272.00 260.77 268.38 256.76 C 268.14 299.84 268.41 342.92 268.23 386.00 C 268.33 389.74 268.39 394.00 271.10 396.91 C 273.87 399.81 278.17 399.94 281.91 400.09 C 325.60 400.05 369.30 400.31 412.99 400.27 C 431.21 400.14 449.22 392.97 462.65 380.68 C 474.66 369.79 483.09 354.96 486.07 339.00 C 489.03 323.51 487.09 307.09 480.28 292.84 C 473.26 277.72 461.02 265.16 446.18 257.61 C 431.09 249.77 413.27 247.46 396.64 250.91 C 386.15 253.04 376.60 258.10 366.46 261.38 C 366.86 249.23 368.90 237.14 368.04 224.96 C 366.43 195.12 352.97 166.23 331.46 145.54 C 319.15 133.65 304.30 124.42 288.19 118.67 C 264.85 110.30 238.89 109.46 215.07 116.28 C 203.20 119.63 191.95 124.99 181.61 131.69 C 156.56 148.25 137.86 174.37 130.90 203.65 C 128.21 214.23 127.59 225.16 126.96 236.00 C 117.63 235.36 108.26 234.07 98.90 235.10 C 75.87 237.31 54.13 249.88 40.56 268.59 C 24.74 289.78 20.26 318.82 28.92 343.80 C 34.94 361.81 47.47 377.48 63.57 387.51 C 74.78 394.54 87.71 398.84 100.92 399.77 C 105.94 400.13 110.97 400.08 116.00 400.08 C 141.69 400.02 167.38 400.15 193.07 400.00 C 196.29 400.07 199.69 400.02 202.66 401.47 C 206.90 403.54 209.51 408.34 209.18 413.02 C 208.99 417.14 206.55 421.08 202.88 423.00 C 199.87 424.61 196.36 424.61 193.04 424.67 C 169.03 424.54 145.02 424.63 121.00 424.61 C 113.00 424.56 104.97 424.85 96.99 424.08 C 79.39 422.44 62.23 416.31 47.58 406.41 C 32.93 396.61 20.84 383.09 12.51 367.56 C 4.60 352.85 0.41 336.25 0.00 319.57 L 0.00 315.45 C 0.34 299.30 4.24 283.21 11.66 268.84 C 26.02 240.26 53.82 218.84 85.17 212.40 C 91.58 210.98 98.14 210.55 104.64 209.86 C 109.58 177.28 126.28 146.76 150.73 124.73 C 170.64 106.63 195.67 94.26 222.13 89.44 Z" />
</g>
</svg>
