<?xml version="1.0" encoding="UTF-8" ?>
<!DOCTYPE svg PUBLIC "-//W3C//DTD SVG 1.1//EN" "http://www.w3.org/Graphics/SVG/1.1/DTD/svg11.dtd">
<svg width="357pt" height="354pt" viewBox="0 0 357 354" version="1.1" xmlns="http://www.w3.org/2000/svg">
<g id="#ffffffff">
<path fill="#ffffff" opacity="1.00" d=" M 150.53 0.00 L 156.47 0.00 C 177.42 0.51 198.15 5.40 217.26 13.92 C 232.32 20.91 246.16 30.40 258.43 41.57 C 268.53 50.94 276.99 61.95 284.38 73.54 C 291.44 85.58 297.64 98.29 301.13 111.85 C 304.26 123.30 306.59 135.05 306.83 146.95 C 308.42 182.39 297.02 218.25 275.44 246.38 C 273.02 249.58 270.20 252.47 268.07 255.89 C 270.59 259.34 273.80 262.18 276.84 265.17 C 301.86 290.14 326.79 315.21 351.86 340.14 C 353.94 342.22 355.71 344.61 357.00 347.26 L 357.00 349.12 C 355.63 350.99 353.99 352.63 352.12 354.00 L 350.26 354.00 C 344.96 351.51 341.26 346.83 337.17 342.83 C 315.17 320.83 293.20 298.80 271.17 276.84 C 267.09 272.90 263.80 268.20 259.39 264.60 C 254.67 268.49 250.27 272.78 245.24 276.28 C 217.90 297.04 183.31 308.10 148.98 306.89 C 133.08 306.75 117.43 303.23 102.39 298.28 C 81.13 290.64 61.73 278.16 45.47 262.53 C 31.94 248.70 20.68 232.58 12.90 214.84 C 4.89 196.45 0.57 176.52 0.00 156.48 L 0.00 150.53 C 0.51 133.39 3.73 116.38 9.49 100.24 C 15.96 83.40 25.23 67.67 36.91 53.91 C 44.52 44.51 53.72 36.52 63.50 29.44 C 88.51 10.87 119.47 0.83 150.53 0.00 M 137.48 12.76 C 117.93 15.34 98.49 21.08 81.66 31.55 C 71.39 37.20 62.19 44.65 53.96 52.95 C 34.01 72.31 20.08 97.83 14.83 125.15 C 11.67 139.13 11.60 153.60 12.60 167.83 C 14.31 183.42 18.42 198.77 24.94 213.04 C 34.62 234.17 49.93 252.45 68.23 266.68 C 72.86 270.25 77.91 273.24 82.96 276.19 C 95.89 284.24 110.54 289.07 125.34 292.34 C 135.74 294.57 146.41 295.09 157.01 294.90 C 178.85 294.79 200.46 288.79 219.75 278.69 C 228.06 273.85 236.47 269.03 243.73 262.67 C 260.14 248.65 274.18 231.44 282.64 211.46 C 290.35 194.41 294.80 175.77 294.90 157.01 C 295.03 148.13 294.75 139.21 293.28 130.43 C 288.40 102.01 275.18 74.78 254.54 54.47 C 246.40 46.13 237.44 38.48 227.27 32.73 C 212.93 23.69 196.76 17.66 180.13 14.49 C 166.14 11.52 151.67 11.59 137.48 12.76 Z" />
</g>
</svg>
