<?xml version="1.0" encoding="UTF-8" ?>
<!DOCTYPE svg PUBLIC "-//W3C//DTD SVG 1.1//EN" "http://www.w3.org/Graphics/SVG/1.1/DTD/svg11.dtd">
<svg width="512pt" height="512pt" viewBox="0 0 512 512" version="1.1" xmlns="http://www.w3.org/2000/svg">
<g id="#ffffffff">
<path fill="#ffffff" opacity="1.00" d=" M 491.69 126.67 C 493.99 124.55 496.72 122.47 499.98 122.29 C 503.08 122.25 506.25 123.31 508.58 125.39 C 510.53 127.21 511.30 129.87 512.00 132.36 L 512.00 134.66 C 511.28 137.64 509.86 140.46 507.68 142.64 C 426.85 223.51 345.99 304.33 265.16 385.19 C 262.84 387.50 259.92 389.33 256.60 389.64 C 252.76 390.22 249.34 387.80 246.70 385.32 C 167.86 306.49 89.03 227.65 10.19 148.81 C 6.32 144.84 1.56 141.23 0.00 135.64 L 0.00 132.38 C 0.79 129.69 1.87 126.92 4.11 125.10 C 7.15 122.33 11.84 122.12 15.55 123.51 C 19.41 125.41 22.13 128.89 25.18 131.82 C 99.84 206.50 174.52 281.15 249.18 355.82 C 251.37 357.98 253.32 360.44 255.96 362.09 C 258.46 360.24 260.50 357.88 262.69 355.69 C 339.02 279.35 415.36 203.01 491.69 126.67 Z" />
</g>
</svg>
