<?xml version="1.0"?>
<svg xmlns="http://www.w3.org/2000/svg" xmlns:xlink="http://www.w3.org/1999/xlink" xmlns:svgjs="http://svgjs.com/svgjs" version="1.1" width="512" height="512" x="0" y="0" viewBox="0 0 512 512" style="enable-background:new 0 0 512 512" xml:space="preserve" class=""><g transform="matrix(1,0,0,1,0,0)"><g xmlns="http://www.w3.org/2000/svg" fill="rgb(0,0,0)"><path d="m356.017 410.5h-200.034c-20.678 0-37.5-16.822-37.5-37.5v-159.324c0-11.772 5.632-23.006 15.064-30.048l100.017-74.677c6.529-4.875 14.287-7.451 22.436-7.451s15.906 2.577 22.435 7.451l100.018 74.677c9.433 7.042 15.064 18.276 15.064 30.048v159.324c0 20.678-16.822 37.5-37.5 37.5zm-100.017-300c-6.193 0-12.089 1.958-17.051 5.663l-100.017 74.677c-7.169 5.352-11.449 13.889-11.449 22.836v159.324c0 15.715 12.785 28.5 28.5 28.5h200.034c15.715 0 28.5-12.785 28.5-28.5v-159.324c0-8.947-4.28-17.484-11.449-22.836l-100.017-74.677c-4.962-3.705-10.858-5.663-17.051-5.663z" fill="#ffffff" data-original="#000000" style="" class=""/><path d="m301.903 410.5h-91.806c-2.485 0-4.5-2.015-4.5-4.5v-105.07c0-20.678 16.822-37.5 37.5-37.5h25.806c20.678 0 37.5 16.822 37.5 37.5v105.07c0 2.485-2.015 4.5-4.5 4.5zm-87.306-9h82.806v-100.57c0-15.715-12.785-28.5-28.5-28.5h-25.806c-15.715 0-28.5 12.785-28.5 28.5z" fill="#ffffff" data-original="#000000" style="" class=""/></g></g></svg>
