<?xml version="1.0"?>
<svg xmlns="http://www.w3.org/2000/svg" xmlns:xlink="http://www.w3.org/1999/xlink" xmlns:svgjs="http://svgjs.com/svgjs" version="1.1" width="512" height="512" x="0" y="0" viewBox="0 0 74 74" style="enable-background:new 0 0 512 512" xml:space="preserve"><g><path xmlns="http://www.w3.org/2000/svg" d="m61.23 71.205a9.806 9.806 0 0 1 -9.059-6.166l-4.035-10.218a.7.7 0 0 0 -.657-.447h-20.958a.7.7 0 0 0 -.657.448l-4.036 10.218a9.8 9.8 0 0 1 -9.058 6.165 9.986 9.986 0 0 1 -1.632-.143 9.787 9.787 0 0 1 -8.1-9.216l-1.01-24.2a1.014 1.014 0 0 1 0-.135 15.1 15.1 0 0 1 15.639-16.011h38.7a15.242 15.242 0 0 1 15.433 12.622 15.088 15.088 0 0 1 .175 3.387 1.014 1.014 0 0 1 0 .135l-1.01 24.2a9.785 9.785 0 0 1 -8.1 9.213 9.945 9.945 0 0 1 -1.635.148zm-34.709-18.831h20.958a2.694 2.694 0 0 1 2.521 1.711l4.036 10.22a7.792 7.792 0 0 0 7.2 4.9 8 8 0 0 0 1.3-.116 7.777 7.777 0 0 0 6.435-7.322l1-24.058a.978.978 0 0 1 0-.171 13.1 13.1 0 0 0 -13.571-14.038h-38.767a13.1 13.1 0 0 0 -13.6 14.04.929.929 0 0 1 0 .175l1 24.052a7.777 7.777 0 0 0 6.439 7.324 7.911 7.911 0 0 0 1.3.116 7.79 7.79 0 0 0 7.2-4.9l4.028-10.221a2.694 2.694 0 0 1 2.521-1.712z" fill="#ffffff" data-original="#000000" style=""/><path xmlns="http://www.w3.org/2000/svg" d="m18.8 46.2a1 1 0 0 1 -1-1v-11.936a1 1 0 0 1 2 0v11.936a1 1 0 0 1 -1 1z" fill="#ffffff" data-original="#000000" style=""/><path xmlns="http://www.w3.org/2000/svg" d="m24.763 40.232h-11.936a1 1 0 1 1 0-2h11.936a1 1 0 1 1 0 2z" fill="#ffffff" data-original="#000000" style=""/><path xmlns="http://www.w3.org/2000/svg" d="m55.424 34.77h-1.214a1 1 0 0 1 0-2h1.214a1 1 0 0 1 0 2z" fill="#ffffff" data-original="#000000" style=""/><path xmlns="http://www.w3.org/2000/svg" d="m55.424 45.693h-1.214a1 1 0 1 1 0-2h1.214a1 1 0 0 1 0 2z" fill="#ffffff" data-original="#000000" style=""/><path xmlns="http://www.w3.org/2000/svg" d="m60.278 40.839a1 1 0 0 1 -1-1v-1.214a1 1 0 0 1 2 0v1.214a1 1 0 0 1 -1 1z" fill="#ffffff" data-original="#000000" style=""/><path xmlns="http://www.w3.org/2000/svg" d="m49.355 40.839a1 1 0 0 1 -1-1v-1.214a1 1 0 0 1 2 0v1.214a1 1 0 0 1 -1 1z" fill="#ffffff" data-original="#000000" style=""/><path xmlns="http://www.w3.org/2000/svg" d="m43.98 23.5h-17.128a1 1 0 0 1 -1-1v-4a3.363 3.363 0 0 1 3.359-3.36h12.409a3.363 3.363 0 0 1 3.36 3.36v4a1 1 0 0 1 -1 1zm-16.128-2h15.128v-3a1.361 1.361 0 0 0 -1.36-1.36h-12.409a1.361 1.361 0 0 0 -1.359 1.36z" fill="#ffffff" data-original="#000000" style=""/><path xmlns="http://www.w3.org/2000/svg" d="m35.416 17.138a1 1 0 0 1 -1-1 12.543 12.543 0 0 1 9.645-12.238l4.5-1.081a1 1 0 0 1 .467 1.945l-4.5 1.08a10.55 10.55 0 0 0 -8.112 10.29 1 1 0 0 1 -1 1.004z" fill="#ffffff" data-original="#000000" style=""/></g></svg>
