<?xml version="1.0" encoding="UTF-8" ?>
<!DOCTYPE svg PUBLIC "-//W3C//DTD SVG 1.1//EN" "http://www.w3.org/Graphics/SVG/1.1/DTD/svg11.dtd">
<svg width="512pt" height="512pt" viewBox="0 0 512 512" version="1.1" xmlns="http://www.w3.org/2000/svg">
<g id="#ffffffff">
<path fill="#ffffff" opacity="1.00" d=" M 2.49 135.41 C 5.67 130.73 11.17 127.57 16.93 128.01 C 173.29 127.99 329.65 128.01 486.00 128.00 C 490.02 128.03 494.05 127.84 498.06 128.18 C 502.08 128.43 505.62 130.87 508.24 133.80 C 510.58 136.40 511.38 139.93 512.00 143.28 L 512.00 144.73 C 511.41 151.04 507.41 157.01 501.33 159.16 C 497.01 160.43 492.43 159.90 488.00 160.01 C 330.97 159.98 173.95 160.01 16.93 159.99 C 12.65 160.16 8.30 158.83 5.24 155.75 C 1.98 153.01 0.63 148.80 0.00 144.73 L 0.00 143.28 C 0.52 140.58 1.07 137.80 2.49 135.41 Z" />
<path fill="#ffffff" opacity="1.00" d=" M 2.49 247.41 C 5.65 242.71 11.17 239.58 16.93 240.01 C 173.95 239.98 330.98 240.02 488.00 239.99 C 492.19 240.07 496.47 239.66 500.59 240.62 C 507.00 242.58 511.44 248.67 512.00 255.27 L 512.00 256.73 C 511.41 263.04 507.41 269.00 501.33 271.16 C 497.01 272.44 492.43 271.90 487.99 272.01 C 330.97 271.98 173.95 272.02 16.93 271.99 C 12.65 272.16 8.29 270.84 5.24 267.75 C 1.98 265.01 0.63 260.80 0.00 256.73 L 0.00 255.28 C 0.52 252.58 1.08 249.80 2.49 247.41 Z" />
<path fill="#ffffff" opacity="1.00" d=" M 160.06 368.00 C 159.62 359.12 168.18 351.31 176.93 352.01 C 282.98 352.00 389.02 351.99 495.07 352.01 C 500.82 351.57 506.35 354.71 509.51 359.41 C 510.92 361.80 511.48 364.58 512.00 367.28 L 512.00 368.73 C 511.46 375.34 506.99 381.40 500.59 383.38 C 496.47 384.34 492.19 383.92 488.00 384.01 C 384.65 383.99 281.30 383.99 177.96 384.01 C 174.81 383.95 171.48 383.90 168.68 382.26 C 163.65 379.43 159.74 373.95 160.06 368.00 Z" />
</g>
</svg>
