<?xml version="1.0" encoding="UTF-8" ?>
<!DOCTYPE svg PUBLIC "-//W3C//DTD SVG 1.1//EN" "http://www.w3.org/Graphics/SVG/1.1/DTD/svg11.dtd">
<svg width="512pt" height="512pt" viewBox="0 0 512 512" version="1.1" xmlns="http://www.w3.org/2000/svg">
<g id="#ffffffff">
<path fill="#ffffff" opacity="1.00" d=" M 88.63 0.00 L 312.29 0.00 C 329.95 1.81 347.44 9.24 359.82 22.17 C 386.06 48.27 412.34 74.33 438.60 100.40 C 446.30 107.89 451.82 117.38 455.45 127.44 C 458.34 134.93 459.98 142.93 459.94 150.97 C 459.91 254.65 459.94 358.32 459.93 462.00 C 459.91 467.03 460.12 472.08 459.76 477.11 C 458.86 490.63 449.91 503.25 437.48 508.63 C 433.02 510.58 428.21 511.66 423.37 512.00 L 88.63 512.00 C 81.55 511.54 74.46 509.46 68.62 505.35 C 61.12 500.26 55.63 492.40 53.29 483.67 C 51.63 477.25 52.09 470.56 52.07 464.00 C 52.07 325.66 52.07 187.33 52.07 49.00 C 52.07 44.30 51.90 39.59 52.23 34.89 C 52.99 23.38 59.59 12.52 69.22 6.23 C 74.92 2.36 81.79 0.45 88.63 0.00 M 88.63 32.69 C 86.38 33.07 84.70 35.18 84.59 37.42 C 84.19 41.60 84.50 45.81 84.45 50.00 C 84.45 187.66 84.46 325.33 84.45 463.00 C 84.56 467.35 83.96 471.79 84.91 476.08 C 85.85 479.07 89.27 479.72 92.00 479.64 C 198.00 479.59 304.00 479.63 410.00 479.62 C 414.19 479.57 418.41 479.89 422.59 479.45 C 424.83 479.31 426.91 477.60 427.28 475.35 C 427.89 471.26 427.49 467.11 427.56 463.00 C 427.54 360.12 427.58 257.24 427.54 154.37 C 426.05 154.17 424.55 154.12 423.06 154.11 C 399.71 154.21 376.36 154.11 353.01 154.16 C 348.79 154.15 344.54 154.12 340.38 153.33 C 327.56 150.68 316.56 140.90 312.43 128.47 C 310.59 123.21 310.28 117.58 310.33 112.05 C 310.43 87.35 310.27 62.65 310.42 37.96 C 310.39 36.10 310.24 34.24 309.86 32.43 C 239.92 32.31 169.96 32.43 100.01 32.37 C 96.22 32.42 92.39 32.06 88.63 32.69 M 342.97 51.75 C 342.62 56.49 342.77 61.25 342.77 66.00 C 342.77 81.68 342.79 97.36 342.74 113.04 C 342.86 115.34 342.69 117.91 344.10 119.88 C 345.48 121.65 347.98 121.54 350.00 121.69 C 371.28 121.70 392.57 121.57 413.85 121.75 C 392.95 100.46 371.52 79.68 350.43 58.57 C 348.15 56.08 345.68 53.76 342.97 51.75 Z" />
<path fill="#ffffff" opacity="1.00" d=" M 132.61 122.77 C 136.90 121.23 141.53 121.70 146.00 121.65 C 179.34 121.71 212.68 121.63 246.01 121.68 C 250.60 121.55 255.25 123.20 258.24 126.78 C 262.98 131.25 264.05 138.68 261.48 144.54 C 258.72 150.35 252.56 154.38 246.06 154.13 C 213.04 154.20 180.02 154.11 147.00 154.16 C 143.32 154.15 139.62 154.33 135.96 153.86 C 131.51 153.33 127.59 150.52 125.06 146.91 C 121.22 141.49 121.37 133.63 125.36 128.34 C 127.23 125.90 129.71 123.84 132.61 122.77 Z" />
<path fill="#ffffff" opacity="1.00" d=" M 133.49 198.71 C 135.58 198.07 137.78 197.96 139.95 197.91 C 214.64 197.94 289.32 197.92 364.01 197.92 C 368.35 197.97 372.71 197.69 377.04 198.14 C 384.05 198.97 390.23 204.91 390.90 212.01 C 391.99 219.28 387.43 226.92 380.52 229.39 C 375.50 230.92 370.17 230.29 365.00 230.39 C 293.00 230.38 221.00 230.38 149.00 230.39 C 144.32 230.33 139.60 230.69 134.96 229.96 C 130.99 229.42 127.79 226.65 125.41 223.60 C 121.75 218.94 121.54 212.24 123.95 206.97 C 125.90 203.14 129.42 200.09 133.49 198.71 Z" />
<path fill="#ffffff" opacity="1.00" d=" M 134.50 274.73 C 135.94 274.40 137.42 274.26 138.90 274.21 C 217.57 274.26 296.24 274.16 374.91 274.26 C 383.80 273.92 391.70 282.18 391.05 291.03 C 391.15 299.90 382.60 307.05 373.98 306.63 C 298.66 306.60 223.33 306.62 148.00 306.63 C 142.60 306.47 136.91 307.35 131.79 305.20 C 125.57 302.55 121.67 295.68 122.43 288.98 C 122.81 282.26 128.04 276.34 134.50 274.73 Z" />
<path fill="#ffffff" opacity="1.00" d=" M 261.42 394.62 C 263.86 393.80 266.46 393.73 269.00 393.69 C 301.34 393.74 333.67 393.71 366.00 393.70 C 370.32 393.76 374.69 393.38 378.96 394.26 C 383.29 395.18 386.75 398.42 389.05 402.08 C 393.35 409.40 390.51 419.90 383.06 423.99 C 379.73 425.92 375.79 426.16 372.04 426.17 C 340.69 426.12 309.34 426.16 278.00 426.15 C 273.64 426.11 269.27 426.35 264.92 425.99 C 256.62 425.48 249.87 417.22 250.64 409.01 C 250.91 402.62 255.40 396.71 261.42 394.62 Z" />
</g>
</svg>
