<?xml version="1.0" encoding="UTF-8" ?>
<!DOCTYPE svg PUBLIC "-//W3C//DTD SVG 1.1//EN" "http://www.w3.org/Graphics/SVG/1.1/DTD/svg11.dtd">
<svg width="512pt" height="512pt" viewBox="0 0 512 512" version="1.1" xmlns="http://www.w3.org/2000/svg">
<g id="#ffffffff">
<path fill="#ffffff" opacity="1.00" d=" M 94.47 44.61 C 100.02 42.33 106.07 41.80 112.01 41.83 C 126.01 41.85 140.01 41.87 154.00 41.84 C 161.14 41.82 168.41 41.57 175.36 43.47 C 188.14 46.90 200.18 54.20 208.07 64.97 C 211.68 69.70 214.94 74.69 218.60 79.39 C 222.30 84.24 227.64 87.62 233.34 89.62 C 239.02 91.57 245.11 90.95 251.00 91.02 C 297.00 90.96 343.00 91.03 389.00 90.99 C 396.00 91.01 403.24 90.53 409.94 92.96 C 422.24 97.17 431.63 108.95 432.66 121.96 C 433.14 128.29 432.79 134.65 432.87 141.00 C 433.06 152.03 432.51 163.08 433.09 174.10 C 438.37 174.65 443.69 174.38 449.00 174.39 C 456.68 174.37 464.37 174.40 472.06 174.36 C 477.26 174.34 482.52 174.34 487.61 175.56 C 495.43 177.41 502.62 182.17 507.00 188.95 C 510.14 193.80 511.52 199.58 512.00 205.28 L 512.00 207.65 C 511.64 212.72 510.32 217.66 508.60 222.43 C 483.82 293.10 459.06 363.78 434.33 434.47 C 428.29 451.13 413.36 463.74 396.45 468.42 C 388.50 470.66 380.16 470.09 372.00 470.15 C 260.34 470.15 148.67 470.14 37.01 470.16 C 32.49 470.08 27.91 469.82 23.57 468.49 C 15.86 466.21 8.98 461.04 4.88 454.10 C 1.61 448.40 0.92 441.72 0.00 435.33 L 0.00 124.68 C 0.28 119.30 1.44 113.88 4.06 109.13 C 8.63 100.52 17.06 94.05 26.56 91.88 C 34.63 90.18 42.92 91.50 51.08 90.89 C 57.09 90.55 62.49 86.33 64.80 80.86 C 66.74 76.35 67.88 71.54 69.99 67.10 C 74.74 56.72 83.99 48.83 94.47 44.61 M 98.98 73.95 C 95.17 77.12 94.06 82.15 92.41 86.59 C 90.06 93.50 86.67 100.24 81.38 105.39 C 73.87 112.75 63.92 118.07 53.29 118.63 C 46.27 119.20 39.16 118.12 32.19 119.25 C 28.62 119.85 27.73 123.87 27.79 126.93 C 27.78 196.95 27.79 266.98 27.78 337.00 C 27.80 342.40 27.62 347.80 28.04 353.18 C 30.57 347.35 32.39 341.25 34.50 335.26 C 46.93 299.72 59.46 264.22 71.81 228.66 C 75.87 218.50 78.05 207.44 84.44 198.35 C 91.71 188.09 102.53 180.57 114.39 176.58 C 122.65 173.83 131.44 174.41 140.00 174.38 C 223.67 174.39 307.33 174.38 391.00 174.38 C 395.64 174.37 400.30 174.60 404.94 174.15 C 405.33 163.77 404.96 153.38 405.09 143.00 C 404.98 136.98 405.34 130.96 404.96 124.95 C 404.94 122.11 402.79 119.44 399.93 119.07 C 395.65 118.46 391.31 118.84 387.00 118.77 C 337.98 118.78 288.96 118.78 239.94 118.78 C 230.45 118.80 221.36 115.33 213.14 110.84 C 206.03 106.95 199.99 101.29 195.32 94.68 C 191.38 89.59 187.99 84.08 183.83 79.16 C 177.86 73.22 169.50 69.38 161.00 69.69 C 144.32 69.74 127.64 69.71 110.97 69.69 C 106.60 69.53 102.19 70.94 98.98 73.95 M 108.55 212.56 C 105.81 215.63 104.49 219.60 103.21 223.43 C 78.73 293.21 54.27 362.99 29.86 432.80 C 29.06 435.46 27.69 438.74 29.72 441.20 C 33.91 442.92 38.58 442.14 43.00 442.30 C 156.34 442.26 269.69 442.29 383.03 442.29 C 392.82 442.32 402.15 436.27 406.92 427.86 C 409.77 422.00 411.11 415.55 413.61 409.53 C 436.37 344.59 459.11 279.63 481.81 214.67 C 483.07 211.08 484.86 207.26 483.62 203.41 C 478.62 201.57 473.20 202.35 468.00 202.21 C 355.34 202.23 242.68 202.23 130.01 202.21 C 121.69 201.97 113.93 206.46 108.55 212.56 Z" />
</g>
</svg>
