<?xml version="1.0" encoding="UTF-8" ?>
<!DOCTYPE svg PUBLIC "-//W3C//DTD SVG 1.1//EN" "http://www.w3.org/Graphics/SVG/1.1/DTD/svg11.dtd">
<svg width="512pt" height="512pt" viewBox="0 0 512 512" version="1.1" xmlns="http://www.w3.org/2000/svg">
<g id="#ffffffff">
<path fill="#ffffff" opacity="1.00" d=" M 61.67 0.00 L 450.32 0.00 C 459.62 0.27 468.92 3.08 476.54 8.48 C 485.27 14.67 491.98 23.82 494.80 34.19 C 496.18 39.03 496.58 44.08 496.62 49.10 C 496.61 183.39 496.61 317.69 496.62 451.99 C 496.53 460.60 497.21 469.40 494.80 477.79 C 491.91 488.40 484.99 497.78 475.89 503.92 C 468.44 509.13 459.35 511.78 450.29 512.00 L 61.72 512.00 C 57.91 511.92 54.10 511.37 50.41 510.38 C 34.32 506.40 21.01 493.02 16.97 476.96 C 14.82 468.82 15.47 460.32 15.38 451.99 C 15.39 317.69 15.39 183.39 15.38 49.10 C 15.35 41.95 16.40 34.72 19.33 28.15 C 26.40 11.59 43.67 0.17 61.67 0.00 M 56.27 30.36 C 50.06 32.46 45.37 38.47 44.85 45.01 C 44.37 49.99 44.70 55.00 44.65 60.00 C 44.63 191.67 44.66 323.33 44.63 455.00 C 44.79 461.30 43.72 468.18 47.04 473.89 C 50.15 479.60 56.62 482.90 63.04 482.74 C 191.68 482.72 320.33 482.73 448.97 482.73 C 455.11 482.84 461.36 479.88 464.56 474.53 C 468.33 468.75 467.22 461.53 467.37 455.00 C 467.34 323.33 467.37 191.67 467.36 60.00 C 467.31 55.03 467.62 50.04 467.14 45.08 C 466.63 38.79 462.35 32.94 456.46 30.64 C 451.88 28.74 446.82 29.33 442.00 29.25 C 432.33 29.40 422.67 29.08 413.01 29.34 C 412.34 34.53 412.67 39.78 412.66 45.00 C 412.65 61.01 412.64 77.02 412.66 93.03 C 412.65 97.35 412.83 101.71 412.08 105.99 C 410.10 118.57 399.94 129.33 387.60 132.30 C 382.17 133.67 376.54 133.31 371.01 133.35 C 291.33 133.29 211.66 133.39 131.99 133.30 C 118.56 133.37 105.96 124.17 101.38 111.66 C 99.65 107.00 99.26 101.98 99.32 97.05 C 99.41 76.69 99.27 56.33 99.40 35.96 C 99.43 33.75 99.23 31.54 99.00 29.34 C 89.34 29.08 79.67 29.40 70.01 29.25 C 65.43 29.33 60.67 28.80 56.27 30.36 M 128.98 29.33 C 128.30 34.20 128.61 39.11 128.61 44.00 C 128.62 62.02 128.59 80.05 128.60 98.07 C 128.85 99.93 128.38 102.66 130.57 103.50 C 134.61 104.57 138.87 103.97 143.00 104.09 C 197.33 104.04 251.67 104.08 306.00 104.07 C 310.99 104.05 316.00 104.27 320.99 103.92 C 321.10 82.95 320.96 61.98 321.03 41.00 C 321.08 37.11 321.26 33.20 320.92 29.31 C 256.94 29.26 192.95 29.22 128.98 29.33 M 350.22 29.33 C 350.34 54.18 350.31 79.04 350.24 103.90 C 358.51 104.35 366.79 103.91 375.06 104.13 C 377.61 103.93 380.71 104.52 382.73 102.55 C 383.82 98.81 383.35 94.84 383.42 90.99 C 383.38 72.31 383.36 53.63 383.45 34.95 C 383.43 33.07 383.22 31.20 383.02 29.34 C 372.09 29.20 361.15 29.21 350.22 29.33 Z" />
<path fill="#ffffff" opacity="1.00" d=" M 112.37 215.28 C 113.56 215.19 114.77 215.14 115.97 215.13 C 209.64 215.16 303.30 215.12 396.97 215.15 C 406.74 214.97 416.29 220.55 420.90 229.17 C 423.50 233.65 424.34 238.88 424.37 243.99 C 424.33 291.66 424.34 339.33 424.36 387.00 C 424.35 394.22 424.97 401.91 421.47 408.51 C 416.94 417.64 407.06 423.68 396.86 423.52 C 305.91 423.59 214.96 423.51 124.01 423.56 C 117.48 423.50 110.65 424.11 104.50 421.45 C 94.41 417.40 87.36 406.92 87.66 396.01 C 87.63 348.01 87.68 300.00 87.64 252.00 C 87.67 245.07 87.03 237.76 90.04 231.29 C 93.88 222.46 102.71 215.96 112.37 215.28 M 117.18 244.38 C 117.06 245.90 116.93 247.42 116.88 248.96 C 116.92 291.97 116.89 334.99 116.90 378.00 C 116.94 383.36 116.68 388.72 117.06 394.08 C 118.37 394.15 119.69 394.22 121.00 394.28 C 207.00 394.26 293.00 394.28 379.00 394.27 C 384.31 394.25 389.63 394.49 394.93 394.07 C 395.29 389.05 395.08 384.02 395.10 379.00 C 395.10 339.33 395.10 299.67 395.10 260.00 C 395.07 254.79 395.34 249.57 394.82 244.37 C 302.28 244.31 209.72 244.30 117.18 244.38 Z" />
<path fill="#ffffff" opacity="1.00" d=" M 139.49 288.80 C 143.52 287.47 147.83 287.90 152.01 287.84 C 185.00 287.89 218.00 287.86 251.00 287.85 C 255.64 287.93 260.34 287.48 264.93 288.33 C 271.58 289.57 276.63 296.19 276.23 302.93 C 276.14 309.06 271.71 314.96 265.72 316.47 C 261.23 317.58 256.57 317.07 252.00 317.15 C 220.33 317.13 188.67 317.14 157.00 317.15 C 152.09 317.09 147.16 317.40 142.28 316.87 C 135.26 315.90 129.54 309.19 130.01 302.06 C 130.00 296.25 133.98 290.66 139.49 288.80 Z" />
</g>
</svg>
